#!OML:ASF \\sashay\E\Suitcase\Project 1\Capture day 1\Session 1\Male1.ASF
:FULLY-SPECIFIED
:DEGREES
641
root 0.536692 17.1629 4.94168 4.62624 6.10251 2.08922
lowerback 4.18944 -1.93426 -2.83136
upperback -1.3526 -2.63671 3.04175
thorax -3.47711 -1.21764 4.92907
lowerneck -19.5599 1.07583 -1.07964
upperneck 14.7638 2.74298 -5.0672
head 7.84509 0.723451 -1.17487
rclavicle -3.64273e-014 2.22639e-014
rhumerus -34.7054 -39.8589 -58.3903
rradius 11.7463
rwrist 10.6195
rhand -16.4252 17.466
rfingers 7.12502
rthumb 9.7899 -12.2864
lclavicle -3.64273e-014 2.22639e-014
lhumerus -32.3384 -11.1045 94.6812
lradius 53.4107
lwrist -0.618159
lhand -5.29626 39.3393
lfingers 7.12502
lthumb 20.5087 68.276
rfemur -27.5964 -1.97806 20.3857
rtibia 22.4547
rfoot -2.81671 -15.6277
rtoes 24.9264
lfemur 10.5488 -6.31326 -27.6868
ltibia 24.3628
lfoot -2.14932 -14.5594
ltoes 13.661
642
root 0.521944 17.1816 5.10598 4.40175 6.00092 1.48645
lowerback 4.36288 -1.89601 -2.24118
upperback -1.47116 -2.54272 3.29535
thorax -3.72152 -1.17332 4.8662
lowerneck -19.6044 1.03782 -0.865664
upperneck 15.2068 2.69714 -5.27279
head 8.00615 0.681616 -1.28605
rclavicle 1.20762e-014 -4.21423e-014
rhumerus -34.8254 -41.299 -57.8061
rradius 12.1224
rwrist 11.9538
rhand -16.1098 16.8667
rfingers 7.12502
rthumb 10.0942 -12.8711
lclavicle 1.20762e-014 -4.21423e-014
lhumerus -32.9368 -11.0588 95.2045
lradius 52.2647
lwrist -1.55939
lhand -4.40756 39.5474
lfingers 7.12502
lthumb 21.3625 68.3899
rfemur -27.0585 -1.25251 21.0598
rtibia 23.0812
rfoot -3.26589 -16.5275
rtoes 23.9406
lfemur 9.91746 -6.28281 -26.7321
ltibia 26.4825
lfoot 0.657241 -14.7988
ltoes 18.0904
643
root 0.52153 17.2166 5.28363 4.52293 5.91711 1.91341
lowerback 4.25641 -1.95362 -2.60021
upperback -1.81567 -2.63792 3.26241
thorax -3.99649 -1.20023 5.04848
lowerneck -18.8712 0.733795 -1.26006
upperneck 15.3758 2.34816 -5.11173
head 7.92163 0.516166 -1.21205
rclavicle 1.2921e-015 -3.26007e-014
rhumerus -34.8142 -41.7735 -57.3994
rradius 11.8646
rwrist 12.7038
rhand -16.3035 18.4992
rfingers 7.12502
rthumb 9.90739 -11.2476
lclavicle 1.2921e-015 -3.26007e-014
lhumerus -33.7433 -10.8161 95.6989
lradius 51.0936
lwrist -2.15691
lhand -4.43478 39.1239
lfingers 7.12502
lthumb 21.3364 67.9693
rfemur -26.6926 -1.64155 20.7867
rtibia 23.5501
rfoot -3.47993 -15.9931
rtoes 23.7757
lfemur 8.59041 -5.65039 -26.8372
ltibia 28.6796
lfoot 2.66607 -15.4415
ltoes 17.3996
644
root 0.50981 17.2217 5.45255 4.23678 5.89197 1.53843
lowerback 4.52356 -1.90405 -2.25644
upperback -1.98198 -2.54271 3.45388
thorax -4.33728 -1.14813 5.0668
lowerneck -18.8012 0.747726 -1.41405
upperneck 15.7588 2.38972 -4.91388
head 8.03384 0.538464 -1.11772
rclavicle 5.46658e-015 -2.3059e-014
rhumerus -34.1213 -41.2172 -57.9944
rradius 12.0535
rwrist 12.2131
rhand -16.0493 17.625
rfingers 7.12502
rthumb 10.1526 -12.1101
lclavicle 5.46658e-015 -2.3059e-014
lhumerus -34.6469 -10.9182 96.2534
lradius 50.3316
lwrist -2.98787
lhand -3.44058 39.939
lfingers 7.12502
lthumb 22.2911 68.6733
rfemur -26.0079 -1.59253 21.3499
rtibia 24.0331
rfoot -3.88356 -15.0939
rtoes 23.9931
lfemur 7.79536 -4.79533 -25.9131
ltibia 30.8044
lfoot 5.19259 -15.7379
ltoes 15.2838
645
root 0.489314 17.2425 5.63013 4.15633 5.56986 1.69076
lowerback 4.06772 -1.87186 -2.61465
upperback -1.97262 -2.51911 3.43196
thorax -4.05802 -1.13421 5.22351
lowerneck -18.4072 0.676383 -1.27057
upperneck 15.7807 2.23051 -4.86071
head 7.96938 0.482574 -1.14286
rclavicle 3.8117e-014 -3.97569e-015
rhumerus -33.1648 -39.8732 -59.5694
rradius 12.8089
rwrist 10.5867
rhand -15.7826 17.3915
rfingers 7.12502
rthumb 10.4098 -12.3308
lclavicle 3.8117e-014 -3.97569e-015
lhumerus -35.0654 -10.9604 96.5115
lradius 49.1772
lwrist -3.25571
lhand -3.32752 40.3549
lfingers 7.12502
lthumb 22.3996 69.0761
rfemur -25.4623 -1.26382 21.346
rtibia 24.3421
rfoot -4.21396 -14.8898
rtoes 23.5376
lfemur 6.55423 -3.86839 -25.6305
ltibia 33.137
lfoot 7.94121 -16.6278
ltoes 13.4277
646
root 0.485796 17.2631 5.7885 3.99127 5.90181 2.08466
lowerback 4.65988 -1.96268 -2.7562
upperback -2.37952 -2.65998 3.26394
thorax -4.80575 -1.17563 5.18074
lowerneck -18.0381 0.839702 -1.68839
upperneck 16.4719 2.42802 -4.04932
head 8.12239 0.622643 -0.782525
rclavicle -7.37988e-015 7.15625e-015
rhumerus -32.7974 -39.0402 -60.0288
rradius 12.7058
rwrist 9.78268
rhand -15.8126 17.7166
rfingers 7.12502
rthumb 10.3809 -12.0071
lclavicle -7.37988e-015 7.15625e-015
lhumerus -36.0266 -11.5043 97.0329
lradius 48.0836
lwrist -3.06015
lhand -3.54888 40.8876
lfingers 7.12502
lthumb 22.1871 69.6343
rfemur -24.7278 -1.81822 21.0236
rtibia 24.5936
rfoot -4.84703 -14.8942
rtoes 22.7984
lfemur 5.40785 -3.71091 -25.6608
ltibia 35.3441
lfoot 11.5181 -17.1554
ltoes 14.4957
647
root 0.443775 17.2777 5.96024 3.94501 5.44812 1.22817
lowerback 4.35517 -1.8924 -2.42238
upperback -2.46396 -2.52225 3.64274
thorax -4.73341 -1.11223 5.36831
lowerneck -18.0862 0.909081 -1.90437
upperneck 16.6862 2.58167 -3.98967
head 8.20207 0.681904 -0.708928
rclavicle 9.96408e-015 -4.6118e-014
rhumerus -32.599 -40.5258 -59.4902
rradius 12.4958
rwrist 11.6826
rhand -15.7967 18.3583
rfingers 7.12502
rthumb 10.3963 -11.3646
lclavicle 9.96408e-015 -4.6118e-014
lhumerus -36.6025 -11.8314 97.4694
lradius 47.0029
lwrist -2.96109
lhand -3.70019 41.2342
lfingers 7.12502
lthumb 22.0418 69.9981
rfemur -24.1346 -0.565327 22.071
rtibia 24.5035
rfoot -5.23764 -15.6195
rtoes 22.2206
lfemur 3.97485 -3.08292 -24.1168
ltibia 37.7186
lfoot 14.4254 -17.673
ltoes 19.2669
648
root 0.447704 17.2945 6.12436 3.78076 5.62309 0.998645
lowerback 4.33162 -1.90777 -1.9194
upperback -2.59111 -2.50648 3.65683
thorax -4.87419 -1.11493 5.0998
lowerneck -17.9353 0.772159 -1.79335
upperneck 16.9595 2.39372 -4.09624
head 8.26801 0.584572 -0.786904
rclavicle -1.73315e-014 -7.15625e-015
rhumerus -31.3169 -36.7786 -61.9813
rradius 13.7169
rwrist 7.27925
rhand -15.6619 17.0706
rfingers 7.12502
rthumb 10.5263 -12.6458
lclavicle -1.73315e-014 -7.15625e-015
lhumerus -36.9659 -12.1256 97.8905
lradius 45.9208
lwrist -3.13763
lhand -3.11201 42.026
lfingers 7.12502
lthumb 22.6065 70.7222
rfemur -23.2812 -1.20439 22.4258
rtibia 24.4375
rfoot -5.8201 -14.9964
rtoes 21.6556
lfemur 2.98848 -2.65082 -23.5735
ltibia 40.0173
lfoot 15.6168 -19.6385
ltoes 10.8328
649
root 0.418818 17.3168 6.29134 3.53801 5.39099 0.122974
lowerback 3.99172 -1.84961 -1.31408
upperback -2.44114 -2.38294 3.89925
thorax -4.54996 -1.07835 4.98063
lowerneck -18.5651 1.46374 -0.360493
upperneck 17.6897 3.24397 -5.20595
head 8.68187 0.937492 -1.2911
rclavicle 1.74061e-014 -1.11319e-014
rhumerus -31.0334 -39.1079 -61.3061
rradius 13.249
rwrist 9.64585
rhand -15.299 18.3033
rfingers 7.12502
rthumb 10.8764 -11.395
lclavicle 1.74061e-014 -1.11319e-014
lhumerus -36.9747 -12.5312 98.0926
lradius 44.7169
lwrist -3.2323
lhand -3.25151 42.3051
lfingers 7.12502
lthumb 22.4726 71.0176
rfemur -22.2923 -0.647425 23.5415
rtibia 24.1309
rfoot -5.96114 -15.2344
rtoes 20.5363
lfemur 1.76247 -2.26644 -22.1407
ltibia 42.42
lfoot 18.9615 -19.0386
ltoes 22.9903
650
root 0.431496 17.3321 6.43957 3.44907 5.76607 0.198371
lowerback 4.36431 -1.96313 -0.920466
upperback -2.89494 -2.50693 3.64857
thorax -5.25202 -1.13766 4.53853
lowerneck -17.8243 1.00581 -0.534621
upperneck 17.5718 2.50619 -4.59495
head 8.47627 0.65756 -1.15015
rclavicle -1.14985e-014 1.35174e-014
rhumerus -31.0486 -38.3145 -61.7529
rradius 13.5996
rwrist 9.0243
rhand -15.2106 17.901
rfingers 7.12502
rthumb 10.9616 -11.7928
lclavicle -1.14985e-014 1.35174e-014
lhumerus -38.0088 -13.1 98.3889
lradius 43.6602
lwrist -3.45015
lhand -2.83937 42.0102
lfingers 7.12502
lthumb 22.8681 70.6743
rfemur -21.2927 -1.96591 23.6127
rtibia 23.6383
rfoot -6.21387 -14.3764
rtoes 20.3129
lfemur 0.278873 -2.15922 -21.9953
ltibia 44.8154
lfoot 16.7577 -17.8413
ltoes 6.31968
651
root 0.402461 17.3422 6.61189 3.1086 5.39234 -0.531767
lowerback 3.74564 -1.87871 -0.537443
upperback -2.39863 -2.3788 3.89868
thorax -4.3962 -1.10343 4.52666
lowerneck -18.661 0.696571 -0.628596
upperneck 17.8578 2.114 -4.48582
head 8.71091 0.460553 -1.1489
rclavicle -4.57205e-015 -2.38542e-014
rhumerus -29.2033 -36.4571 -63.8846
rradius 14.2797
rwrist 6.36016
rhand -15.3484 18.5202
rfingers 7.12502
rthumb 10.8287 -11.1807
lclavicle -4.57205e-015 -2.38542e-014
lhumerus -37.3768 -13.0446 98.3211
lradius 42.476
lwrist -3.76693
lhand -2.46157 42.671
lfingers 7.12502
lthumb 23.2306 71.2898
rfemur -20.1914 -1.55437 24.6062
rtibia 23.0915
rfoot -6.07064 -14.5972
rtoes 18.6136
lfemur -0.678932 -1.43155 -20.7222
ltibia 47.3012
lfoot 20.9268 -19.8673
ltoes 18.1446
652
root 0.390941 17.3556 6.76678 2.6436 5.22646 -1.63987
lowerback 4.72027 -1.72665 0.776957
upperback -3.03929 -2.03975 3.99176
thorax -5.69348 -0.9539 3.92282
lowerneck -17.4671 0.857648 -1.15078
upperneck 18.241 2.23383 -3.40057
head 8.60903 0.605773 -0.682468
rclavicle 1.64494e-014 -6.36111e-015
rhumerus -30.1405 -36.1503 -63.4396
rradius 14.5853
rwrist 5.91439
rhand -14.8174 17.4305
rfingers 7.12502
rthumb 11.3409 -12.2428
lclavicle 1.64494e-014 -6.36111e-015
lhumerus -38.6813 -13.33 98.7253
lradius 41.2096
lwrist -4.39988
lhand -2.48728 42.1675
lfingers 7.12502
lthumb 23.206 70.7894
rfemur -18.8851 -1.57891 25.8789
rtibia 22.5619
rfoot -6.61946 -14.3322
rtoes 19.6719
lfemur -1.94521 -0.866739 -19.0636
ltibia 49.828
lfoot 22.3598 -19.3421
ltoes 24.843
653
root 0.375515 17.367 6.9152 2.59033 5.39043 -1.79053
lowerback 4.17722 -1.90421 0.822624
upperback -2.75561 -2.30151 4.00322
thorax -5.07037 -1.09437 3.89637
lowerneck -18.5319 0.636104 -0.41042
upperneck 18.7974 1.91459 -4.06377
head 9.00042 0.41335 -1.0728
rclavicle 1.92324e-014 -6.36111e-015
rhumerus -28.866 -36.1304 -64.4787
rradius 14.8281
rwrist 5.67104
rhand -14.4669 17.6903
rfingers 7.12502
rthumb 11.6789 -11.9641
lclavicle 1.92324e-014 -6.36111e-015
lhumerus -38.0207 -12.9155 98.3096
lradius 39.8379
lwrist -5.26118
lhand -1.66971 42.2542
lfingers 7.12502
lthumb 23.9902 70.7751
rfemur -18.0498 -2.06911 26.1669
rtibia 22.0958
rfoot -6.65572 -13.9249
rtoes 19.3573
lfemur -3.40684 -0.695081 -18.6007
ltibia 52.262
lfoot 20.7312 -19.7454
ltoes 21.3123
